<?xml version="1.0" encoding="utf-8"?>
<!-- Generator: Adobe Illustrator 15.0.2, SVG Export Plug-In  -->
<!DOCTYPE svg PUBLIC "-//W3C//DTD SVG 1.1//EN" "http://www.w3.org/Graphics/SVG/1.1/DTD/svg11.dtd" [
	<!ENTITY ns_flows "http://ns.adobe.com/Flows/1.0/">
]>
<svg version="1.1"
	 xmlns="http://www.w3.org/2000/svg" xmlns:xlink="http://www.w3.org/1999/xlink" xmlns:a="http://ns.adobe.com/AdobeSVGViewerExtensions/3.0/"
	 x="0px" y="0px" width="190px" height="44px" viewBox="0 -0.272 190 44"
	 overflow="visible" enable-background="new 0 -0.272 190 44" xml:space="preserve">
<defs>
</defs>
<path fill="#CC3612" d="M0,3.153h17.758c14.953,0,21.712,7.045,21.712,19.707c0,13.289-6.587,20.394-22.228,20.394H0V3.153z
	 M16.727,33.285c4.468,0,6.76-2.233,6.76-9.737c0-7.505-2.062-10.026-6.76-10.026h-0.916v19.764H16.727z"/>
<path fill="#CC3612" d="M42.735,43.253V12.891h9.969c4.01,0,4.811,1.147,4.811,6.302v24.061H42.735z M43.023,5.844
	C43.023,2.178,45.829,0,50.124,0c4.297,0,7.104,2.178,7.104,5.844s-2.807,5.786-7.104,5.786C45.829,11.629,43.023,9.51,43.023,5.844
	z"/>
<path fill="#CC3612" d="M62.056,43.253V12.891h10.599c2.118,0,3.322,0.631,3.837,4.756c2.464-2.751,5.5-5.329,10.713-5.329
	c4.868,0,8.421,2.234,8.421,8.88v22.055H80.846V25.208c0-1.832-0.975-2.119-3.209-2.119c-0.285,0-0.573,0-0.803,0.057v20.107H62.056
	z"/>
<path fill="#0064B4" d="M99.815,40.903v-4.525h1.89c1.374,1.316,3.895,2.692,7.619,2.692c4.181,0,6.244-1.489,6.244-4.354
	c0-2.519-1.433-3.607-6.303-4.353c-6.071-0.86-9.45-3.094-9.45-8.65c0-5.67,4.181-8.764,10.769-8.764
	c4.239,0,6.818,0.974,8.822,2.119v4.469h-1.891c-1.432-1.146-3.609-2.12-6.875-2.12c-3.837,0-5.612,1.318-5.612,3.839
	c0,2.347,1.66,3.379,6.358,4.065c6.588,0.975,9.682,3.152,9.682,8.881c0,5.67-3.609,9.338-11.46,9.338
	C104.685,43.54,101.819,42.221,99.815,40.903z"/>
<path fill="#0064B4" d="M123.723,6.647c0-1.89,1.604-3.438,3.437-3.438c1.834,0,3.438,1.548,3.438,3.438
	c0,1.834-1.604,3.323-3.438,3.323C125.328,9.97,123.723,8.481,123.723,6.647z M124.181,43.253V13.292h3.265
	c2.293,0,2.577,0.688,2.577,4.469v25.492H124.181z"/>
<path fill="#0064B4" d="M154.628,39.186c-2.063,2.464-5.271,4.411-9.396,4.411c-6.242,0-11.571-4.469-11.571-14.895
	c0-11.744,6.358-15.868,12.374-15.868c4.124,0,6.588,1.204,8.535,3.094V3.153h3.208c2.292,0,2.636,0.573,2.636,3.896v36.205h-3.839
	C155.258,43.253,154.799,42.564,154.628,39.186z M154.57,35.29V20.052c-1.719-1.604-3.78-2.52-6.874-2.52
	c-3.952,0-8.135,2.12-8.135,10.883c0,8.193,3.037,10.885,7.104,10.885C149.988,39.3,152.336,37.751,154.57,35.29z"/>
<path fill="#0064B4" d="M169.778,29.39c0.288,7.103,3.495,9.796,9.109,9.796c3.838,0,6.473-1.261,8.308-2.751h1.89v4.068
	c-2.177,1.49-5.443,3.094-11.057,3.094c-9.167,0-14.265-5.846-14.265-15.238c0-9.567,5.9-15.524,13.691-15.524
	c7.905,0,12.545,4.641,12.545,14.492c0,0.804-0.057,1.833-0.057,2.063H169.778z M169.893,25.551h14.322
	c-0.116-6.473-2.636-8.707-6.761-8.707C173.56,16.844,170.524,19.192,169.893,25.551z"/>
</svg>
