<?xml version="1.0" encoding="UTF-8" standalone="no"?>
<svg width="272px" height="213px" viewBox="0 0 272 213" version="1.1" xmlns="http://www.w3.org/2000/svg" xmlns:xlink="http://www.w3.org/1999/xlink">
    <!-- Generator: Sketch 3.8.3 (29802) - http://www.bohemiancoding.com/sketch -->
    <title>0</title>
    <desc>Created with Sketch.</desc>
    <defs>
        <polygon id="path-1" points="213.3334 212.691 213.3334 0 106.6667 0 0 0 0 212.691 213.3334 212.691"></polygon>
    </defs>
    <g id="Page-1" stroke="none" stroke-width="1" fill="none" fill-rule="evenodd">
        <g id="Artboard-1" transform="translate(-140.000000, -595.000000)">
            <g id="0" transform="translate(140.000000, 595.000000)">
                <polygon id="Fill-1" fill="#CC3612" points="58 213 271 213 271 0 58 0"></polygon>
                <path d="M58,0 L58,213 L58,0 Z" id="Fill-2" fill="#0635F6"></path>
                <g transform="translate(58.000000, 0.000000)">
                    <g id="Group-5">
                        <mask id="mask-2" fill="white">
                            <use xlink:href="#path-1"></use>
                        </mask>
                        <g id="Clip-4"></g>
                        <polygon id="Fill-3" fill="#FFFFFF" opacity="0.1" mask="url(#mask-2)" points="0 0 213.334 212.691 213.334 0"></polygon>
                    </g>
                    <polygon id="Fill-6" fill="#FFFFFF" opacity="0.1" points="0 212.691 212.5 0 0 0"></polygon>
                </g>
                <path d="M58,0 L58,213 L58,0 Z" id="Fill-9" fill="#FFFFFF"></path>
                <g id="Group-24">
                    <path d="M36.802,193.512 C36.802,188.5 34.295,185.929 25.877,185.929 C17.459,185.929 14.631,188.242 14.631,193.512 L14.631,194.539 L36.802,194.539 L36.802,193.512 Z M3,212.277 L3,192.356 C3,175.582 10.904,168 25.106,168 C40.015,168 47.983,175.39 47.983,192.934 L47.983,212.277 L3,212.277 Z" id="Fill-10" fill="#CC3612"></path>
                    <path d="M6.556,164.258 C2.443,164.258 0,161.109 0,156.29 C0,151.47 2.443,148.321 6.556,148.321 C10.668,148.321 13.046,151.47 13.046,156.29 C13.046,161.109 10.668,164.258 6.556,164.258 L6.556,164.258 Z M47.876,164.579 L13.817,164.579 L13.817,153.397 C13.817,148.899 15.103,148 20.886,148 L47.876,148 L47.876,164.579 Z" id="Fill-12" fill="#CC3612"></path>
                    <path d="M47.701,143.658 L13.642,143.658 L13.642,131.769 C13.642,129.392 14.349,128.043 18.976,127.464 C15.891,124.701 13,121.295 13,115.447 C13,109.985 15.506,106 22.961,106 L47.701,106 L47.701,122.58 L27.459,122.58 C25.403,122.58 25.081,123.673 25.081,126.179 C25.081,126.5 25.081,126.822 25.145,127.079 L47.701,127.079 L47.701,143.658 Z" id="Fill-14" fill="#CC3612"></path>
                    <path d="M45.36,100.842 L40.283,100.842 L40.283,98.721 C41.76,97.179 43.303,94.352 43.303,90.175 C43.303,85.484 41.632,83.17 38.419,83.17 C35.592,83.17 34.371,84.776 33.536,90.239 C32.571,97.051 30.065,100.842 23.831,100.842 C17.47,100.842 14,96.151 14,88.761 C14,84.005 15.092,81.113 16.377,78.864 L21.389,78.864 L21.389,80.985 C20.105,82.591 19.012,85.033 19.012,88.697 C19.012,93.002 20.489,94.994 23.318,94.994 C25.952,94.994 27.109,93.131 27.88,87.861 C28.973,80.47 31.415,77 37.841,77 C44.202,77 48.316,81.049 48.316,89.854 C48.316,95.379 46.837,98.593 45.36,100.842" id="Fill-16" fill="#0064B4"></path>
                    <path d="M47.92,74.198 L14.311,74.198 L14.311,70.535 C14.311,67.964 15.082,67.643 19.324,67.643 L47.92,67.643 L47.92,74.198 Z M6.856,74.712 C4.736,74.712 3,72.912 3,70.856 C3,68.8 4.736,67 6.856,67 C8.913,67 10.584,68.8 10.584,70.856 C10.584,72.912 8.913,74.712 6.856,74.712 L6.856,74.712 Z" id="Fill-18" fill="#0064B4"></path>
                    <path d="M39.051,39.555 L21.957,39.555 C20.157,41.483 19.13,43.796 19.13,47.266 C19.13,51.7 21.508,56.391 31.339,56.391 C40.529,56.391 43.549,52.985 43.549,48.422 C43.549,44.695 41.814,42.061 39.051,39.555 M43.421,39.49 C46.184,41.804 48.369,45.402 48.369,50.03 C48.369,57.034 43.356,63.01 31.661,63.01 C18.487,63.01 13.86,55.877 13.86,49.129 C13.86,44.503 15.21,41.739 17.331,39.555 L3,39.555 L3,35.956 C3,33.385 3.642,33 7.37,33 L47.983,33 L47.983,37.305 C47.983,38.783 47.212,39.297 43.421,39.49" id="Fill-20" fill="#0064B4"></path>
                    <path d="M28.266,22.556 L28.266,6.49 C21.005,6.62 18.498,9.447 18.498,14.073 C18.498,18.443 21.133,21.85 28.266,22.556 L28.266,22.556 Z M32.572,22.685 C40.54,22.363 43.561,18.764 43.561,12.467 C43.561,8.161 42.147,5.205 40.476,3.148 L40.476,1.028 L45.039,1.028 C46.71,3.47 48.509,7.133 48.509,13.432 C48.509,23.713 41.954,29.432 31.415,29.432 C20.683,29.432 14,22.813 14,14.073 C14,5.205 19.206,0 30.258,0 C31.158,0 32.314,0.064 32.572,0.064 L32.572,22.685 Z" id="Fill-22" fill="#0064B4"></path>
                </g>
                <path d="M142.490967,66.3037109 L149.062744,66.3037109 L138.627686,97 L131.531006,97 L121.116943,66.3037109 L127.688721,66.3037109 L133.462646,84.5703125 C133.784588,85.6481174 134.117023,86.9043711 134.459961,88.3391113 C134.802899,89.7738516 135.016357,90.7711561 135.100342,91.3310547 C135.254314,90.0432878 135.779211,87.7897296 136.675049,84.5703125 L142.490967,66.3037109 Z M162.143311,77.6416016 C160.785556,77.6416016 159.721765,78.0720172 158.951904,78.9328613 C158.182044,79.7937055 157.74113,81.014966 157.62915,82.5966797 L166.615479,82.5966797 C166.587484,81.014966 166.174565,79.7937055 165.376709,78.9328613 C164.578853,78.0720172 163.501065,77.6416016 162.143311,77.6416016 L162.143311,77.6416016 Z M163.046143,97.4199219 C159.266827,97.4199219 156.313406,96.3771263 154.185791,94.2915039 C152.058176,92.2058815 150.994385,89.2524605 150.994385,85.4311523 C150.994385,81.4978644 151.977692,78.4569606 153.944336,76.3083496 C155.91098,74.1597386 158.629947,73.0854492 162.101318,73.0854492 C165.418718,73.0854492 168.001211,74.030264 169.848877,75.9199219 C171.696542,77.8095798 172.620361,80.420068 172.620361,83.7514648 L172.620361,86.8588867 L157.482178,86.8588867 C157.552165,88.6785573 158.091059,90.0992787 159.098877,91.1210938 C160.106694,92.1429088 161.520417,92.6538086 163.340088,92.6538086 C164.753832,92.6538086 166.09057,92.5068374 167.350342,92.2128906 C168.610114,91.9189438 169.925856,91.4500358 171.297607,90.8061523 L171.297607,95.7612305 C170.17781,96.3211291 168.981045,96.7375475 167.707275,97.010498 C166.433506,97.2834486 164.879811,97.4199219 163.046143,97.4199219 L163.046143,97.4199219 Z M184.231201,97 L177.827393,97 L177.827393,64.3300781 L184.231201,64.3300781 L184.231201,97 Z M211.37915,73.5263672 L211.37915,76.7807617 L207.704834,77.7255859 C208.376712,78.7753959 208.712646,79.9511654 208.712646,81.2529297 C208.712646,83.7724735 207.834319,85.7355887 206.077637,87.142334 C204.320955,88.5490793 201.881933,89.2524414 198.760498,89.2524414 L197.605713,89.1894531 L196.660889,89.0844727 C196.003008,89.5883814 195.674072,90.1482717 195.674072,90.7641602 C195.674072,91.6879929 196.849842,92.1499023 199.201416,92.1499023 L203.190674,92.1499023 C205.766208,92.1499023 207.729323,92.702794 209.080078,93.8085938 C210.430834,94.9143935 211.106201,96.5380752 211.106201,98.6796875 C211.106201,101.423191 209.961926,103.550774 207.67334,105.0625 C205.384754,106.574226 202.098898,107.330078 197.815674,107.330078 C194.540267,107.330078 192.038257,106.75969 190.30957,105.618896 C188.580883,104.478103 187.716553,102.878917 187.716553,100.821289 C187.716553,99.407545 188.157466,98.2247769 189.039307,97.2729492 C189.921147,96.3211215 191.215893,95.6422546 192.923584,95.2363281 C192.265703,94.9563788 191.691816,94.4979687 191.201904,93.861084 C190.711993,93.2241993 190.467041,92.5488317 190.467041,91.8349609 C190.467041,90.9391231 190.72599,90.1937693 191.243896,89.598877 C191.761803,89.0039847 192.510656,88.4195992 193.490479,87.8457031 C192.258702,87.3137994 191.282393,86.4599668 190.561523,85.2841797 C189.840654,84.1083926 189.480225,82.7226642 189.480225,81.1269531 C189.480225,78.5654169 190.313061,76.5848052 191.97876,75.1850586 C193.644458,73.785312 196.023992,73.0854492 199.117432,73.0854492 C199.775313,73.0854492 200.55566,73.1449376 201.458496,73.263916 C202.361333,73.3828945 202.938719,73.4703773 203.190674,73.5263672 L211.37915,73.5263672 Z M193.259521,100.317383 C193.259521,101.199223 193.682938,101.892087 194.529785,102.395996 C195.376632,102.899905 196.562899,103.151855 198.088623,103.151855 C200.384207,103.151855 202.182855,102.836917 203.484619,102.207031 C204.786383,101.577145 205.437256,100.716314 205.437256,99.6245117 C205.437256,98.7426714 205.052331,98.1337907 204.282471,97.7978516 C203.51261,97.4619124 202.322843,97.2939453 200.713135,97.2939453 L197.395752,97.2939453 C196.219965,97.2939453 195.236658,97.5703911 194.445801,98.123291 C193.654944,98.6761909 193.259521,99.4075475 193.259521,100.317383 L193.259521,100.317383 Z M195.590088,81.2109375 C195.590088,82.4847069 195.880531,83.4925093 196.461426,84.234375 C197.042321,84.9762407 197.927647,85.347168 199.117432,85.347168 C200.321214,85.347168 201.203041,84.9762407 201.762939,84.234375 C202.322838,83.4925093 202.602783,82.4847069 202.602783,81.2109375 C202.602783,78.3834494 201.441011,76.9697266 199.117432,76.9697266 C196.765857,76.9697266 195.590088,78.3834494 195.590088,81.2109375 L195.590088,81.2109375 Z M81.8122559,135.234375 L84.6047363,131.665039 L91.1765137,124.526367 L98.3991699,124.526367 L89.0769043,134.709473 L98.9660645,148 L91.5754395,148 L84.8146973,138.48877 L82.064209,140.693359 L82.064209,148 L75.6604004,148 L75.6604004,115.330078 L82.064209,115.330078 L82.064209,129.901367 L81.7282715,135.234375 L81.8122559,135.234375 Z M117.232666,148 L115.993896,144.808594 L115.825928,144.808594 C114.748123,146.166348 113.63884,147.107663 112.498047,147.632568 C111.357253,148.157473 109.870045,148.419922 108.036377,148.419922 C105.782785,148.419922 104.008633,147.776048 102.713867,146.488281 C101.419102,145.200514 100.771729,143.366874 100.771729,140.987305 C100.771729,138.495756 101.643058,136.658616 103.385742,135.47583 C105.128427,134.293044 107.756411,133.638673 111.269775,133.512695 L115.343018,133.386719 L115.343018,132.35791 C115.343018,129.978341 114.125256,128.788574 111.689697,128.788574 C109.814037,128.788574 107.609469,129.355463 105.075928,130.489258 L102.955322,126.164062 C105.656833,124.750318 108.652246,124.043457 111.94165,124.043457 C115.09108,124.043457 117.505607,124.729323 119.185303,126.101074 C120.864999,127.472826 121.704834,129.558417 121.704834,132.35791 L121.704834,148 L117.232666,148 Z M115.343018,137.124023 L112.865479,137.208008 C111.003816,137.263998 109.618087,137.599932 108.708252,138.21582 C107.798417,138.831709 107.343506,139.769525 107.343506,141.029297 C107.343506,142.83497 108.379303,143.737793 110.450928,143.737793 C111.934659,143.737793 113.120927,143.310877 114.009766,142.457031 C114.898605,141.603186 115.343018,140.469408 115.343018,139.055664 L115.343018,137.124023 Z M141.39917,124.085449 C142.267013,124.085449 142.987871,124.148437 143.561768,124.274414 L143.078857,130.279297 C142.560951,130.139322 141.931075,130.069336 141.189209,130.069336 C139.145579,130.069336 137.553391,130.594233 136.412598,131.644043 C135.271804,132.693853 134.701416,134.163565 134.701416,136.053223 L134.701416,148 L128.297607,148 L128.297607,124.526367 L133.147705,124.526367 L134.092529,128.473633 L134.407471,128.473633 C135.135339,127.157871 136.118646,126.097579 137.357422,125.292725 C138.596198,124.48787 139.943433,124.085449 141.39917,124.085449 L141.39917,124.085449 Z M162.731201,148 L161.492432,144.808594 L161.324463,144.808594 C160.246658,146.166348 159.137375,147.107663 157.996582,147.632568 C156.855789,148.157473 155.36858,148.419922 153.534912,148.419922 C151.28132,148.419922 149.507168,147.776048 148.212402,146.488281 C146.917637,145.200514 146.270264,143.366874 146.270264,140.987305 C146.270264,138.495756 147.141593,136.658616 148.884277,135.47583 C150.626962,134.293044 153.254947,133.638673 156.768311,133.512695 L160.841553,133.386719 L160.841553,132.35791 C160.841553,129.978341 159.623791,128.788574 157.188232,128.788574 C155.312572,128.788574 153.108004,129.355463 150.574463,130.489258 L148.453857,126.164062 C151.155368,124.750318 154.150781,124.043457 157.440186,124.043457 C160.589615,124.043457 163.004142,124.729323 164.683838,126.101074 C166.363534,127.472826 167.203369,129.558417 167.203369,132.35791 L167.203369,148 L162.731201,148 Z M160.841553,137.124023 L158.364014,137.208008 C156.502351,137.263998 155.116622,137.599932 154.206787,138.21582 C153.296952,138.831709 152.842041,139.769525 152.842041,141.029297 C152.842041,142.83497 153.877838,143.737793 155.949463,143.737793 C157.433194,143.737793 158.619462,143.310877 159.508301,142.457031 C160.39714,141.603186 160.841553,140.469408 160.841553,139.055664 L160.841553,137.124023 Z M179.947998,135.234375 L182.740479,131.665039 L189.312256,124.526367 L196.534912,124.526367 L187.212646,134.709473 L197.101807,148 L189.711182,148 L182.950439,138.48877 L180.199951,140.693359 L180.199951,148 L173.796143,148 L173.796143,115.330078 L180.199951,115.330078 L180.199951,129.901367 L179.864014,135.234375 L179.947998,135.234375 Z M210.350342,143.317871 C211.470139,143.317871 212.813876,143.072919 214.381592,142.583008 L214.381592,147.349121 C212.785881,148.062992 210.826265,148.419922 208.502686,148.419922 C205.941149,148.419922 204.076015,147.772549 202.907227,146.477783 C201.738438,145.183018 201.154053,143.240898 201.154053,140.651367 L201.154053,129.334473 L198.088623,129.334473 L198.088623,126.625977 L201.615967,124.484375 L203.463623,119.529297 L207.557861,119.529297 L207.557861,124.526367 L214.129639,124.526367 L214.129639,129.334473 L207.557861,129.334473 L207.557861,140.651367 C207.557861,141.561202 207.813311,142.233071 208.324219,142.666992 C208.835126,143.100914 209.510494,143.317871 210.350342,143.317871 L210.350342,143.317871 Z M228.8479,128.641602 C227.490146,128.641602 226.426355,129.072017 225.656494,129.932861 C224.886634,130.793705 224.44572,132.014966 224.33374,133.59668 L233.320068,133.59668 C233.292073,132.014966 232.879154,130.793705 232.081299,129.932861 C231.283443,129.072017 230.205655,128.641602 228.8479,128.641602 L228.8479,128.641602 Z M229.750732,148.419922 C225.971417,148.419922 223.017996,147.377126 220.890381,145.291504 C218.762766,143.205881 217.698975,140.252461 217.698975,136.431152 C217.698975,132.497864 218.682282,129.456961 220.648926,127.30835 C222.61557,125.159739 225.334537,124.085449 228.805908,124.085449 C232.123308,124.085449 234.705801,125.030264 236.553467,126.919922 C238.401132,128.80958 239.324951,131.420068 239.324951,134.751465 L239.324951,137.858887 L224.186768,137.858887 C224.256755,139.678557 224.795649,141.099279 225.803467,142.121094 C226.811284,143.142909 228.225007,143.653809 230.044678,143.653809 C231.458422,143.653809 232.79516,143.506837 234.054932,143.212891 C235.314704,142.918944 236.630446,142.450036 238.002197,141.806152 L238.002197,146.76123 C236.8824,147.321129 235.685635,147.737547 234.411865,148.010498 C233.138096,148.283449 231.5844,148.419922 229.750732,148.419922 L229.750732,148.419922 Z M257.633545,124.085449 C258.501388,124.085449 259.222246,124.148437 259.796143,124.274414 L259.313232,130.279297 C258.795326,130.139322 258.16545,130.069336 257.423584,130.069336 C255.379954,130.069336 253.787766,130.594233 252.646973,131.644043 C251.506179,132.693853 250.935791,134.163565 250.935791,136.053223 L250.935791,148 L244.531982,148 L244.531982,124.526367 L249.38208,124.526367 L250.326904,128.473633 L250.641846,128.473633 C251.369714,127.157871 252.353021,126.097579 253.591797,125.292725 C254.830573,124.48787 256.177808,124.085449 257.633545,124.085449 L257.633545,124.085449 Z" id="Velg-" fill="#FFFFFF"></path>
            </g>
        </g>
    </g>
</svg>