<?xml version="1.0" encoding="UTF-8" standalone="no"?>
<svg width="272px" height="213px" viewBox="0 0 272 213" version="1.1" xmlns="http://www.w3.org/2000/svg" xmlns:xlink="http://www.w3.org/1999/xlink">
    <!-- Generator: Sketch 3.7.2 (28276) - http://www.bohemiancoding.com/sketch -->
    <title>d-one</title>
    <desc>Created with Sketch.</desc>
    <defs>
        <polygon id="path-1" points="213.3334 212.691 213.3334 0 106.6667 0 0 0 0 212.691 213.3334 212.691"></polygon>
    </defs>
    <g id="Page-1" stroke="none" stroke-width="1" fill="none" fill-rule="evenodd">
        <g id="Artboard-1" transform="translate(-770.000000, -355.000000)">
            <g id="d-one" transform="translate(770.000000, 355.000000)">
                <polygon id="Fill-1" fill="#CC3612" points="58 213 271 213 271 0 58 0"></polygon>
                <path d="M58,0 L58,213 L58,0 Z" id="Fill-2" fill="#0635F6"></path>
                <g id="Group-8" transform="translate(58.000000, 0.000000)">
                    <g id="Group-5">
                        <mask id="mask-2" fill="white">
                            <use xlink:href="#path-1"></use>
                        </mask>
                        <g id="Clip-4"></g>
                        <polygon id="Fill-3" fill="#FFFFFF" opacity="0.1" mask="url(#mask-2)" points="0 0 213.334 212.691 213.334 0"></polygon>
                    </g>
                    <polygon id="Fill-6" fill="#FFFFFF" opacity="0.1" points="0 212.691 212.5 0 0 0"></polygon>
                </g>
                <path d="M58,0 L58,213 L58,0 Z" id="Fill-9" fill="#FFFFFF"></path>
                <g id="Group-24">
                    <path d="M36.802,193.512 C36.802,188.5 34.295,185.929 25.877,185.929 C17.459,185.929 14.631,188.242 14.631,193.512 L14.631,194.539 L36.802,194.539 L36.802,193.512 Z M3,212.277 L3,192.356 C3,175.582 10.904,168 25.106,168 C40.015,168 47.983,175.39 47.983,192.934 L47.983,212.277 L3,212.277 Z" id="Fill-10" fill="#CC3612"></path>
                    <path d="M6.556,164.258 C2.443,164.258 0,161.109 0,156.29 C0,151.47 2.443,148.321 6.556,148.321 C10.668,148.321 13.046,151.47 13.046,156.29 C13.046,161.109 10.668,164.258 6.556,164.258 L6.556,164.258 Z M47.876,164.579 L13.817,164.579 L13.817,153.397 C13.817,148.899 15.103,148 20.886,148 L47.876,148 L47.876,164.579 Z" id="Fill-12" fill="#CC3612"></path>
                    <path d="M47.701,143.658 L13.642,143.658 L13.642,131.769 C13.642,129.392 14.349,128.043 18.976,127.464 C15.891,124.701 13,121.295 13,115.447 C13,109.985 15.506,106 22.961,106 L47.701,106 L47.701,122.58 L27.459,122.58 C25.403,122.58 25.081,123.673 25.081,126.179 C25.081,126.5 25.081,126.822 25.145,127.079 L47.701,127.079 L47.701,143.658 Z" id="Fill-14" fill="#CC3612"></path>
                    <path d="M45.36,100.842 L40.283,100.842 L40.283,98.721 C41.76,97.179 43.303,94.352 43.303,90.175 C43.303,85.484 41.632,83.17 38.419,83.17 C35.592,83.17 34.371,84.776 33.536,90.239 C32.571,97.051 30.065,100.842 23.831,100.842 C17.47,100.842 14,96.151 14,88.761 C14,84.005 15.092,81.113 16.377,78.864 L21.389,78.864 L21.389,80.985 C20.105,82.591 19.012,85.033 19.012,88.697 C19.012,93.002 20.489,94.994 23.318,94.994 C25.952,94.994 27.109,93.131 27.88,87.861 C28.973,80.47 31.415,77 37.841,77 C44.202,77 48.316,81.049 48.316,89.854 C48.316,95.379 46.837,98.593 45.36,100.842" id="Fill-16" fill="#0064B4"></path>
                    <path d="M47.92,74.198 L14.311,74.198 L14.311,70.535 C14.311,67.964 15.082,67.643 19.324,67.643 L47.92,67.643 L47.92,74.198 Z M6.856,74.712 C4.736,74.712 3,72.912 3,70.856 C3,68.8 4.736,67 6.856,67 C8.913,67 10.584,68.8 10.584,70.856 C10.584,72.912 8.913,74.712 6.856,74.712 L6.856,74.712 Z" id="Fill-18" fill="#0064B4"></path>
                    <path d="M39.051,39.555 L21.957,39.555 C20.157,41.483 19.13,43.796 19.13,47.266 C19.13,51.7 21.508,56.391 31.339,56.391 C40.529,56.391 43.549,52.985 43.549,48.422 C43.549,44.695 41.814,42.061 39.051,39.555 M43.421,39.49 C46.184,41.804 48.369,45.402 48.369,50.03 C48.369,57.034 43.356,63.01 31.661,63.01 C18.487,63.01 13.86,55.877 13.86,49.129 C13.86,44.503 15.21,41.739 17.331,39.555 L3,39.555 L3,35.956 C3,33.385 3.642,33 7.37,33 L47.983,33 L47.983,37.305 C47.983,38.783 47.212,39.297 43.421,39.49" id="Fill-20" fill="#0064B4"></path>
                    <path d="M28.266,22.556 L28.266,6.49 C21.005,6.62 18.498,9.447 18.498,14.073 C18.498,18.443 21.133,21.85 28.266,22.556 L28.266,22.556 Z M32.572,22.685 C40.54,22.363 43.561,18.764 43.561,12.467 C43.561,8.161 42.147,5.205 40.476,3.148 L40.476,1.028 L45.039,1.028 C46.71,3.47 48.509,7.133 48.509,13.432 C48.509,23.713 41.954,29.432 31.415,29.432 C20.683,29.432 14,22.813 14,14.073 C14,5.205 19.206,0 30.258,0 C31.158,0 32.314,0.064 32.572,0.064 L32.572,22.685 Z" id="Fill-22" fill="#0064B4"></path>
                </g>
                <path d="M181.055,106.027 C181.055,115.43 173.431,123.053 164.028,123.053 C154.623,123.053 147,115.43 147,106.027 C147,96.623 154.623,89 164.028,89 C173.431,89 181.055,96.623 181.055,106.027" id="Fill-25" fill="#FFFFFF"></path>
            </g>
        </g>
    </g>
</svg>