<?xml version="1.0" encoding="UTF-8" standalone="no"?>
<svg width="271px" height="213px" viewBox="0 0 271 213" version="1.1" xmlns="http://www.w3.org/2000/svg" xmlns:xlink="http://www.w3.org/1999/xlink">
    <!-- Generator: Sketch 3.7.2 (28276) - http://www.bohemiancoding.com/sketch -->
    <title>d-six</title>
    <desc>Created with Sketch.</desc>
    <defs>
        <polygon id="path-1" points="213.581 212.691 213.581 0 106.9143 0 0.2476 0 0.2476 212.691 213.581 212.691"></polygon>
    </defs>
    <g id="Page-1" stroke="none" stroke-width="1" fill="none" fill-rule="evenodd">
        <g id="Artboard-1" transform="translate(-142.000000, -350.000000)">
            <g id="d-six" transform="translate(142.000000, 350.000000)">
                <polygon id="Fill-1" fill="#CC3612" points="57.581 213 270.581 213 270.581 0 57.581 0"></polygon>
                <path d="M57.5811,-0.0003 L57.5811,212.9997 L57.5811,-0.0003 Z" id="Fill-2" fill="#0635F6"></path>
                <g id="Group-8" transform="translate(57.000000, 0.000000)">
                    <g id="Group-5">
                        <mask id="mask-2" fill="white">
                            <use xlink:href="#path-1"></use>
                        </mask>
                        <g id="Clip-4"></g>
                        <polygon id="Fill-3" fill="#FFFFFF" opacity="0.1" mask="url(#mask-2)" points="0.2476 0 213.5816 212.691 213.5816 0"></polygon>
                    </g>
                    <polygon id="Fill-6" fill="#FFFFFF" opacity="0.1" points="0.5811 212.6914 213.0811 0.0004 0.5811 0.0004"></polygon>
                </g>
                <path d="M57.5811,-0.0003 L57.5811,212.9997 L57.5811,-0.0003 Z" id="Fill-9" fill="#FFFFFF"></path>
                <g id="Group-24">
                    <path d="M36.6949,193.9531 C36.6949,188.9411 34.1879,186.3701 25.7699,186.3701 C17.3519,186.3701 14.5239,188.6831 14.5239,193.9531 L14.5239,194.9801 L36.6949,194.9801 L36.6949,193.9531 Z M2.8929,212.7181 L2.8929,192.7971 C2.8929,176.0231 10.7969,168.4411 24.9989,168.4411 C39.9079,168.4411 47.8759,175.8311 47.8759,193.3751 L47.8759,212.7181 L2.8929,212.7181 Z" id="Fill-10" fill="#CC3612"></path>
                    <path d="M6.5562,164.7778 C2.4432,164.7778 0.0002,161.6288 0.0002,156.8098 C0.0002,151.9898 2.4432,148.8408 6.5562,148.8408 C10.6682,148.8408 13.0462,151.9898 13.0462,156.8098 C13.0462,161.6288 10.6682,164.7778 6.5562,164.7778 L6.5562,164.7778 Z M47.8762,165.0988 L13.8172,165.0988 L13.8172,153.9168 C13.8172,149.4188 15.1032,148.5198 20.8862,148.5198 L47.8762,148.5198 L47.8762,165.0988 Z" id="Fill-12" fill="#CC3612"></path>
                    <path d="M47.876,143.7485 L13.817,143.7485 L13.817,131.8595 C13.817,129.4825 14.524,128.1335 19.151,127.5545 C16.066,124.7915 13.175,121.3855 13.175,115.5375 C13.175,110.0755 15.681,106.0905 23.136,106.0905 L47.876,106.0905 L47.876,122.6705 L27.634,122.6705 C25.578,122.6705 25.256,123.7635 25.256,126.2695 C25.256,126.5905 25.256,126.9125 25.32,127.1695 L47.876,127.1695 L47.876,143.7485 Z" id="Fill-14" fill="#CC3612"></path>
                    <path d="M45.2417,101.3926 L40.1647,101.3926 L40.1647,99.2716 C41.6417,97.7296 43.1847,94.9026 43.1847,90.7256 C43.1847,86.0346 41.5137,83.7206 38.3007,83.7206 C35.4737,83.7206 34.2527,85.3266 33.4177,90.7896 C32.4527,97.6016 29.9467,101.3926 23.7127,101.3926 C17.3517,101.3926 13.8817,96.7016 13.8817,89.3116 C13.8817,84.5556 14.9737,81.6636 16.2587,79.4146 L21.2707,79.4146 L21.2707,81.5356 C19.9867,83.1416 18.8937,85.5836 18.8937,89.2476 C18.8937,93.5526 20.3707,95.5446 23.1997,95.5446 C25.8337,95.5446 26.9907,93.6816 27.7617,88.4116 C28.8547,81.0206 31.2967,77.5506 37.7227,77.5506 C44.0837,77.5506 48.1977,81.5996 48.1977,90.4046 C48.1977,95.9296 46.7187,99.1436 45.2417,101.3926" id="Fill-16" fill="#0064B4"></path>
                    <path d="M47.876,74.0581 L14.267,74.0581 L14.267,70.3951 C14.267,67.8241 15.038,67.5031 19.28,67.5031 L47.876,67.5031 L47.876,74.0581 Z M6.812,74.5721 C4.692,74.5721 2.956,72.7721 2.956,70.7161 C2.956,68.6601 4.692,66.8601 6.812,66.8601 C8.869,66.8601 10.54,68.6601 10.54,70.7161 C10.54,72.7721 8.869,74.5721 6.812,74.5721 L6.812,74.5721 Z" id="Fill-18" fill="#0064B4"></path>
                    <path d="M38.9439,39.9683 L21.8499,39.9683 C20.0499,41.8963 19.0229,44.2093 19.0229,47.6793 C19.0229,52.1133 21.4009,56.8043 31.2319,56.8043 C40.4219,56.8043 43.4419,53.3983 43.4419,48.8353 C43.4419,45.1083 41.7069,42.4743 38.9439,39.9683 M43.3139,39.9033 C46.0769,42.2173 48.2619,45.8153 48.2619,50.4433 C48.2619,57.4473 43.2489,63.4233 31.5539,63.4233 C18.3799,63.4233 13.7529,56.2903 13.7529,49.5423 C13.7529,44.9163 15.1029,42.1523 17.2239,39.9683 L2.8929,39.9683 L2.8929,36.3693 C2.8929,33.7983 3.5349,33.4133 7.2629,33.4133 L47.8759,33.4133 L47.8759,37.7183 C47.8759,39.1963 47.1049,39.7103 43.3139,39.9033" id="Fill-20" fill="#0064B4"></path>
                    <path d="M28.0191,22.7788 L28.0191,6.7128 C20.7581,6.8428 18.2511,9.6698 18.2511,14.2958 C18.2511,18.6658 20.8861,22.0728 28.0191,22.7788 L28.0191,22.7788 Z M32.3251,22.9078 C40.2931,22.5858 43.3141,18.9868 43.3141,12.6898 C43.3141,8.3838 41.9001,5.4278 40.2291,3.3708 L40.2291,1.2508 L44.7921,1.2508 C46.4631,3.6928 48.2621,7.3558 48.2621,13.6548 C48.2621,23.9358 41.7071,29.6548 31.1681,29.6548 C20.4361,29.6548 13.7531,23.0358 13.7531,14.2958 C13.7531,5.4278 18.9591,0.2228 30.0111,0.2228 C30.9111,0.2228 32.0671,0.2868 32.3251,0.2868 L32.3251,22.9078 Z" id="Fill-22" fill="#0064B4"></path>
                </g>
                <g id="Group-37" transform="translate(90.000000, 32.000000)" fill="#FFFFFF">
                    <path d="M34.8013,74.5449 C34.8013,83.9479 27.1773,91.5709 17.7743,91.5709 C8.3703,91.5709 0.7473,83.9479 0.7473,74.5449 C0.7473,65.1409 8.3703,57.5179 17.7743,57.5179 C27.1773,57.5179 34.8013,65.1409 34.8013,74.5449" id="Fill-25"></path>
                    <path d="M146.751,74.5449 C146.751,83.9479 139.128,91.5709 129.725,91.5709 C120.321,91.5709 112.698,83.9479 112.698,74.5449 C112.698,65.1409 120.321,57.5179 129.725,57.5179 C139.128,57.5179 146.751,65.1409 146.751,74.5449" id="Fill-27"></path>
                    <path d="M34.8013,130.3066 C34.8013,139.7096 27.1773,147.3326 17.7743,147.3326 C8.3703,147.3326 0.7473,139.7096 0.7473,130.3066 C0.7473,120.9036 8.3703,113.2806 17.7743,113.2806 C27.1773,113.2806 34.8013,120.9036 34.8013,130.3066" id="Fill-29"></path>
                    <path d="M129.7247,113.2803 C139.1277,113.2803 146.7507,120.9033 146.7507,130.3063 C146.7507,139.7113 139.1277,147.3333 129.7247,147.3333 C120.3217,147.3333 112.6987,139.7113 112.6987,130.3063 C112.6987,120.9033 120.3217,113.2803 129.7247,113.2803" id="Fill-31"></path>
                    <path d="M17.3487,34.957 C7.9457,34.957 0.3227,27.334 0.3227,17.931 C0.3227,8.526 7.9457,0.904 17.3487,0.904 C26.7527,0.904 34.3757,8.526 34.3757,17.931 C34.3757,27.334 26.7527,34.957 17.3487,34.957" id="Fill-33"></path>
                    <path d="M112.6983,18.3564 C112.6983,8.9534 120.3213,1.3304 129.7243,1.3304 C139.1283,1.3304 146.7513,8.9534 146.7513,18.3564 C146.7513,27.7604 139.1283,35.3824 129.7243,35.3824 C120.3213,35.3824 112.6983,27.7604 112.6983,18.3564" id="Fill-35"></path>
                </g>
            </g>
        </g>
    </g>
</svg>