<?xml version="1.0" encoding="utf-8"?>
<!-- Generator: Adobe Illustrator 21.0.2, SVG Export Plug-In . SVG Version: 6.00 Build 0)  -->
<svg version="1.1" id="Layer_1" xmlns="http://www.w3.org/2000/svg" xmlns:xlink="http://www.w3.org/1999/xlink" x="0px" y="0px"
	 viewBox="0 0 271 213" style="enable-background:new 0 0 271 213;" xml:space="preserve">
<style type="text/css">
	.st0{fill:#0635F6;}
	.st1{fill:#FFFFFF;}
	.st2{fill:#CC3612;}
	.st3{fill:#0064B4;}
	.st4{filter:url(#Adobe_OpacityMaskFilter);}
	.st5{opacity:0.1;mask:url(#mask-2);fill:#FFFFFF;enable-background:new    ;}
	.st6{opacity:0.1;fill:#FFFFFF;enable-background:new    ;}
	.st7{filter:url(#Adobe_OpacityMaskFilter_1_);}
	.st8{opacity:0.1;mask:url(#mask-2_1_);fill:#FFFFFF;enable-background:new    ;}
	.st9{filter:url(#Adobe_OpacityMaskFilter_2_);}
	.st10{opacity:0.1;mask:url(#mask-2_3_);fill:#FFFFFF;enable-background:new    ;}
	.st11{filter:url(#Adobe_OpacityMaskFilter_3_);}
	.st12{opacity:0.1;mask:url(#mask-2_2_);fill:#FFFFFF;enable-background:new    ;}
</style>
<title>d-six</title>
<desc>Created with Sketch.</desc>
<path id="Fill-2" class="st0" d="M57.6,0v213V0z"/>
<path id="Fill-9" class="st1" d="M57.6,0v213V0z"/>
<g id="Group-24">
	<path id="Fill-10" class="st2" d="M36.7,194c0-5-2.5-7.6-10.9-7.6s-11.2,2.3-11.2,7.6v1h22.2V194z M2.9,212.7v-19.9
		c0-16.8,7.9-24.4,22.1-24.4c14.9,0,22.9,7.4,22.9,24.9v19.3H2.9z"/>
	<path id="Fill-12" class="st2" d="M6.6,164.8c-4.1,0-6.6-3.1-6.6-8c0-4.8,2.4-8,6.6-8c4.1,0,6.5,3.1,6.5,8
		C13,161.6,10.7,164.8,6.6,164.8L6.6,164.8z M47.9,165.1H13.8v-11.2c0-4.5,1.3-5.4,7.1-5.4h27V165.1z"/>
	<path id="Fill-14" class="st2" d="M47.9,143.7H13.8v-11.9c0-2.4,0.7-3.7,5.3-4.3c-3.1-2.8-6-6.2-6-12c0-5.5,2.5-9.4,10-9.4h24.7
		v16.6H27.6c-2.1,0-2.4,1.1-2.4,3.6c0,0.3,0,0.6,0.1,0.9h22.6V143.7z"/>
	<path id="Fill-16" class="st3" d="M45.2,101.4h-5.1v-2.1c1.5-1.5,3-4.4,3-8.5c0-4.7-1.7-7-4.9-7c-2.8,0-4,1.6-4.9,7.1
		c-1,6.8-3.5,10.6-9.7,10.6c-6.4,0-9.8-4.7-9.8-12.1c0-4.8,1.1-7.6,2.4-9.9h5v2.1c-1.3,1.6-2.4,4-2.4,7.7c0,4.3,1.5,6.3,4.3,6.3
		c2.6,0,3.8-1.9,4.6-7.1c1.1-7.4,3.5-10.9,10-10.9c6.4,0,10.5,4,10.5,12.9C48.2,95.9,46.7,99.1,45.2,101.4"/>
	<path id="Fill-18" class="st3" d="M47.9,74.1H14.3v-3.7c0-2.6,0.8-2.9,5-2.9h28.6V74.1z M6.8,74.6c-2.1,0-3.9-1.8-3.9-3.9
		s1.7-3.9,3.9-3.9c2.1,0,3.7,1.8,3.7,3.9S8.9,74.6,6.8,74.6L6.8,74.6z"/>
	<path id="Fill-20" class="st3" d="M38.9,40H21.8C20,41.9,19,44.2,19,47.7c0,4.4,2.4,9.1,12.2,9.1c9.2,0,12.2-3.4,12.2-8
		C43.4,45.1,41.7,42.5,38.9,40 M43.3,39.9c2.8,2.3,4.9,5.9,4.9,10.5c0,7-5,13-16.7,13c-13.2,0-17.8-7.1-17.8-13.9
		c0-4.6,1.3-7.4,3.5-9.6H2.9v-3.6c0-2.6,0.6-3,4.4-3h40.6v4.3C47.9,39.2,47.1,39.7,43.3,39.9"/>
	<path id="Fill-22" class="st3" d="M28,22.8V6.7c-7.3,0.1-9.8,3-9.8,7.6C18.3,18.7,20.9,22.1,28,22.8L28,22.8z M32.3,22.9
		c8-0.3,11-3.9,11-10.2c0-4.3-1.4-7.3-3.1-9.3V1.3h4.6c1.7,2.4,3.5,6.1,3.5,12.4c0,10.3-6.6,16-17.1,16c-10.7,0-17.4-6.6-17.4-15.4
		C13.8,5.4,19,0.2,30,0.2c0.9,0,2.1,0.1,2.3,0.1V22.9z"/>
</g>
<g>
	<polygon id="Fill-1" class="st2" points="57.8,104.3 162.1,104.3 162.1,0 57.8,0 	"/>
	<g id="Group-8" transform="translate(57.000000, 0.000000)">
		<g id="Group-5">
			<g id="Clip-4">
			</g>
			<defs>
				<filter id="Adobe_OpacityMaskFilter" filterUnits="userSpaceOnUse" x="0.7" y="0" width="104.4" height="104.1">
					<feColorMatrix  type="matrix" values="1 0 0 0 0  0 1 0 0 0  0 0 1 0 0  0 0 0 1 0"/>
				</filter>
			</defs>
			<mask maskUnits="userSpaceOnUse" x="0.7" y="0" width="104.4" height="104.1" id="mask-2">
				<g class="st4">
					<polygon id="path-1" class="st1" points="105.1,104.1 105.1,0 52.9,0 0.7,0 0.7,104.1 					"/>
				</g>
			</mask>
			<polygon id="Fill-3" class="st5" points="0.7,0 105.1,104.1 105.1,0 			"/>
		</g>
		<polygon id="Fill-6" class="st6" points="0.8,104.1 104.8,0 0.8,0 		"/>
	</g>
	<g id="Group-37" transform="translate(90.000000, 32.000000)">
		<path id="Fill-25" class="st1" d="M0.7,20.1c0,4.6-3.7,8.3-8.3,8.3c-4.6,0-8.3-3.7-8.3-8.3c0-4.6,3.7-8.3,8.3-8.3
			C-3,11.8,0.7,15.5,0.7,20.1"/>
		<path id="Fill-27" class="st1" d="M55.5,20.1c0,4.6-3.7,8.3-8.3,8.3c-4.6,0-8.3-3.7-8.3-8.3c0-4.6,3.7-8.3,8.3-8.3
			C51.8,11.8,55.5,15.5,55.5,20.1"/>
		<path id="Fill-29" class="st1" d="M0.7,47.4c0,4.6-3.7,8.3-8.3,8.3c-4.6,0-8.3-3.7-8.3-8.3c0-4.6,3.7-8.3,8.3-8.3
			C-3,39.1,0.7,42.8,0.7,47.4"/>
		<path id="Fill-31" class="st1" d="M47.2,39.1c4.6,0,8.3,3.7,8.3,8.3c0,4.6-3.7,8.3-8.3,8.3s-8.3-3.7-8.3-8.3
			C38.9,42.8,42.6,39.1,47.2,39.1"/>
		<path id="Fill-33" class="st1" d="M-7.8,0.8c-4.6,0-8.3-3.7-8.3-8.3c0-4.6,3.7-8.3,8.3-8.3c4.6,0,8.3,3.7,8.3,8.3
			C0.5-3-3.2,0.8-7.8,0.8"/>
		<path id="Fill-35" class="st1" d="M38.9-7.4c0-4.6,3.7-8.3,8.3-8.3c4.6,0,8.3,3.7,8.3,8.3c0,4.6-3.7,8.3-8.3,8.3
			C42.6,1,38.9-2.8,38.9-7.4"/>
	</g>
</g>
<g>
	<polygon id="Fill-1_1_" class="st2" points="57.3,213.4 162.5,213.4 162.5,108.2 57.3,108.2 	"/>
	<g id="Group-8_1_" transform="translate(57.000000, 0.000000)">
		<g id="Group-5_1_">
			<g id="Clip-4_1_">
			</g>
			<defs>
				<filter id="Adobe_OpacityMaskFilter_1_" filterUnits="userSpaceOnUse" x="-0.2" y="108.2" width="105.4" height="105.1">
					<feColorMatrix  type="matrix" values="1 0 0 0 0  0 1 0 0 0  0 0 1 0 0  0 0 0 1 0"/>
				</filter>
			</defs>
			<mask maskUnits="userSpaceOnUse" x="-0.2" y="108.2" width="105.4" height="105.1" id="mask-2_1_">
				<g class="st7">
					<polygon id="path-1_1_" class="st1" points="105.2,213.3 105.2,108.2 52.5,108.2 -0.2,108.2 -0.2,213.3 					"/>
				</g>
			</mask>
			<polygon id="Fill-3_1_" class="st8" points="-0.2,108.2 105.2,213.3 105.2,108.2 			"/>
		</g>
		<polygon id="Fill-6_1_" class="st6" points="0.3,213.3 105.3,108.2 0.3,108.2 		"/>
	</g>
	<g id="Group-33" transform="translate(90.000000, 32.000000)">
		<path id="Fill-25_1_" class="st1" d="M0.4,156.2c0,4.6-3.8,8.4-8.4,8.4c-4.6,0-8.4-3.8-8.4-8.4c0-4.6,3.8-8.4,8.4-8.4
			C-3.4,147.8,0.4,151.6,0.4,156.2"/>
		<path id="Fill-27_1_" class="st1" d="M47.3,147.8c4.6,0,8.4,3.8,8.4,8.4c0,4.6-3.8,8.4-8.4,8.4s-8.4-3.8-8.4-8.4
			C38.9,151.6,42.7,147.8,47.3,147.8"/>
		<path id="Fill-29_1_" class="st1" d="M-8.5,108.8c-4.6,0-8.4-3.8-8.4-8.4c0-4.6,3.8-8.4,8.4-8.4c4.6,0,8.4,3.8,8.4,8.4
			C-0.1,105-3.8,108.8-8.5,108.8"/>
		<path id="Fill-31_1_" class="st1" d="M38.9,100.9c0-4.6,3.8-8.4,8.4-8.4c4.6,0,8.4,3.8,8.4,8.4c0,4.6-3.8,8.4-8.4,8.4
			C42.7,109.3,38.9,105.5,38.9,100.9"/>
	</g>
</g>
<g>
	<polyline id="Fill-1_3_" class="st2" points="166.5,212.7 271.1,212.7 271.1,108.2 166.5,108.2 	"/>
	<defs>
		<filter id="Adobe_OpacityMaskFilter_2_" filterUnits="userSpaceOnUse" x="166.5" y="108.2" width="104.7" height="104.4">
			<feColorMatrix  type="matrix" values="1 0 0 0 0  0 1 0 0 0  0 0 1 0 0  0 0 0 1 0"/>
		</filter>
	</defs>
	<mask maskUnits="userSpaceOnUse" x="166.5" y="108.2" width="104.7" height="104.4" id="mask-2_3_">
		<g class="st9">
			<polygon id="path-1_3_" class="st1" points="271.2,212.6 271.2,108.2 218.9,108.2 166.5,108.2 166.5,212.6 			"/>
		</g>
	</mask>
	<polyline id="Fill-3_3_" class="st10" points="166.5,108.2 271.2,212.6 271.2,108.2 166.5,108.2 	"/>
	<polyline id="Fill-6_3_" class="st6" points="166.5,212.6 270.8,108.2 166.5,108.2 	"/>
	<g id="Group-31" transform="translate(90.000000, 33.000000)">
		<path id="Fill-25_3_" class="st1" d="M136.9,127.2c0,4.6-3.7,8.4-8.4,8.4c-4.6,0-8.4-3.7-8.4-8.4c0-4.6,3.7-8.4,8.4-8.4
			C133.2,118.9,136.9,122.6,136.9,127.2"/>
		<path id="Fill-27_3_" class="st1" d="M109.4,154.7c0,4.6-3.7,8.4-8.4,8.4c-4.6,0-8.4-3.7-8.4-8.4s3.7-8.4,8.4-8.4
			C105.7,146.3,109.4,150.1,109.4,154.7"/>
		<path id="Fill-29_3_" class="st1" d="M147.7,99.7c0-4.6,3.7-8.4,8.4-8.4c4.6,0,8.4,3.7,8.4,8.4c0,4.6-3.7,8.4-8.4,8.4
			C151.4,108.1,147.7,104.3,147.7,99.7"/>
	</g>
</g>
<g>
	<polygon id="Fill-1_2_" class="st2" points="166.7,104.3 270.9,104.3 270.9,0 166.7,0 	"/>
	<g id="Group-8_2_" transform="translate(57.000000, 0.000000)">
		<g id="Group-5_2_">
			<g id="Clip-4_2_">
			</g>
			<defs>
				<filter id="Adobe_OpacityMaskFilter_3_" filterUnits="userSpaceOnUse" x="109.5" y="0" width="104.4" height="104.1">
					<feColorMatrix  type="matrix" values="1 0 0 0 0  0 1 0 0 0  0 0 1 0 0  0 0 0 1 0"/>
				</filter>
			</defs>
			<mask maskUnits="userSpaceOnUse" x="109.5" y="0" width="104.4" height="104.1" id="mask-2_2_">
				<g class="st11">
					<polygon id="path-1_2_" class="st1" points="213.9,104.1 213.9,0 161.7,0 109.5,0 109.5,104.1 					"/>
				</g>
			</mask>
			<polygon id="Fill-3_2_" class="st12" points="109.5,0 213.9,104.1 213.9,0 			"/>
		</g>
		<polygon id="Fill-6_2_" class="st6" points="109.7,104.1 213.7,0 109.7,0 		"/>
	</g>
	<g id="Group-35" transform="translate(90.000000, 32.000000)">
		<path id="Fill-25_2_" class="st1" d="M136.9,20.1c0,4.6-3.7,8.3-8.3,8.3c-4.6,0-8.3-3.7-8.3-8.3c0-4.6,3.7-8.3,8.3-8.3
			C133.2,11.8,136.9,15.5,136.9,20.1"/>
		<path id="Fill-27_2_" class="st1" d="M109.6,47.4c0,4.6-3.7,8.3-8.3,8.3c-4.6,0-8.3-3.7-8.3-8.3c0-4.6,3.7-8.3,8.3-8.3
			C105.8,39.1,109.6,42.8,109.6,47.4"/>
		<path id="Fill-29_2_" class="st1" d="M156,39.1c4.6,0,8.3,3.7,8.3,8.3c0,4.6-3.7,8.3-8.3,8.3s-8.3-3.7-8.3-8.3
			C147.7,42.8,151.4,39.1,156,39.1"/>
		<path id="Fill-31_2_" class="st1" d="M101,0.8c-4.6,0-8.3-3.7-8.3-8.3c0-4.6,3.7-8.3,8.3-8.3c4.6,0,8.3,3.7,8.3,8.3
			C109.3-3,105.6,0.8,101,0.8"/>
		<path id="Fill-33_1_" class="st1" d="M147.7-7.4c0-4.6,3.7-8.3,8.3-8.3c4.6,0,8.3,3.7,8.3,8.3c0,4.6-3.7,8.3-8.3,8.3
			C151.4,1,147.7-2.8,147.7-7.4"/>
	</g>
</g>
</svg>
