<?xml version="1.0" encoding="UTF-8" standalone="no"?>
<svg width="19px" height="20px" viewBox="0 0 19 20" version="1.1" xmlns="http://www.w3.org/2000/svg" xmlns:xlink="http://www.w3.org/1999/xlink">
    <!-- Generator: Sketch 3.7.2 (28276) - http://www.bohemiancoding.com/sketch -->
    <title>arrow</title>
    <desc>Created with Sketch.</desc>
    <defs>
        <polygon id="path-1" points="18.6093 0.313 0.000285827794 0.313 0.000285827794 13.2435 18.6093 13.2435 18.6093 0.313"></polygon>
    </defs>
    <g id="Page-1" stroke="none" stroke-width="1" fill="none" fill-rule="evenodd">
        <g transform="translate(0.000000, -1.000000)" id="arrow">
            <g>
                <g id="Group-3" transform="translate(0.000000, 0.687500)">
                    <mask id="mask-2" fill="white">
                        <use xlink:href="#path-1"></use>
                    </mask>
                    <g id="Clip-2"></g>
                    <path d="M0.3333,0.3125 C0.3333,0.3125 0.4183,0.7135 0.5343,1.4145 C0.6093,1.7565 0.6173,2.2085 0.7663,2.6615 C0.8973,3.1075 1.0433,3.6115 1.2043,4.1605 C1.3213,4.4205 1.4433,4.6915 1.5693,4.9715 C1.7043,5.2445 1.7763,5.5535 1.9753,5.8105 C2.3153,6.3535 2.6513,6.9235 3.1273,7.4205 C3.5243,7.9795 4.1323,8.3745 4.6493,8.8605 C5.2483,9.2615 5.8403,9.6885 6.5263,9.9825 L7.0143,10.2445 L7.5343,10.4485 C7.8843,10.5755 8.2173,10.7425 8.5763,10.8385 C8.9353,10.9335 9.2893,11.0395 9.6373,11.1525 C9.9863,11.2635 10.3483,11.3145 10.6963,11.3975 C11.3933,11.5685 12.0893,11.6315 12.7453,11.7525 C13.4063,11.7935 14.0383,11.8935 14.6243,11.9105 C15.2093,11.9165 15.7563,11.9775 16.2363,11.9515 C16.7153,11.9295 17.1493,11.9685 17.4953,11.9275 C18.1943,11.8835 18.6093,11.8725 18.6093,11.8725 C18.6093,11.8725 18.2443,12.0445 17.5753,12.3175 C17.2433,12.4665 16.8233,12.5695 16.3393,12.7105 C15.8563,12.8665 15.2973,12.9515 14.6833,13.0575 C14.0693,13.1685 13.3953,13.2005 12.6793,13.2435 C11.9653,13.2215 11.1993,13.2715 10.4193,13.1375 C9.6353,13.0605 8.8263,12.9095 8.0183,12.6865 C7.6113,12.5885 7.2193,12.4145 6.8153,12.2785 L6.2123,12.0585 L5.6313,11.7695 C4.8473,11.4015 4.1433,10.8775 3.4503,10.3715 C2.8183,9.7835 2.1853,9.2045 1.7433,8.5035 C1.5233,8.1555 1.2343,7.8625 1.0943,7.4875 C0.9343,7.1285 0.7773,6.7775 0.6253,6.4355 C0.3303,5.7545 0.2503,5.0445 0.0943,4.4335 C0.0193,3.7935 0.0233,3.2005 0.0063,2.6945 C-0.0297,2.1835 0.1063,1.7725 0.1393,1.4165 C0.2513,0.7145 0.3333,0.3125 0.3333,0.3125" id="Fill-1" fill="#CC3612" mask="url(#mask-2)"></path>
                </g>
                <path d="M12.0208,5.4062 C12.0208,5.4062 12.0568,5.5972 12.0878,5.9242 C12.0898,6.0892 12.1248,6.2892 12.1778,6.4772 C12.2218,6.6712 12.2698,6.8712 12.3558,7.0992 C12.6518,7.9982 13.3038,8.9412 14.1908,9.7612 C15.0728,10.5852 16.1368,11.2742 17.0178,11.7642 C17.4568,12.0102 17.8528,12.2032 18.1418,12.3352 C18.4308,12.4662 18.6098,12.5602 18.6098,12.5602 C18.6098,12.5602 18.4368,12.6352 18.1118,12.7322 C17.9488,12.7852 17.7488,12.8262 17.5168,12.8452 C17.2818,12.8802 17.0138,12.9012 16.7278,12.8752 C16.4348,12.8742 16.1218,12.8342 15.7948,12.7652 C15.4608,12.7112 15.1338,12.5812 14.7828,12.4652 C14.4528,12.3072 14.0918,12.1682 13.7728,11.9422 C13.4348,11.7462 13.1298,11.4842 12.8258,11.2222 C12.5468,10.9302 12.2518,10.6522 12.0378,10.3042 C11.7968,9.9822 11.6198,9.6162 11.4698,9.2582 C11.3408,8.8902 11.2268,8.5282 11.1978,8.1692 C11.1538,7.8122 11.1578,7.4782 11.2148,7.1722 C11.2318,6.8742 11.3338,6.5922 11.4258,6.3602 C11.4988,6.1182 11.6058,5.9522 11.7048,5.8232 C11.8948,5.5552 12.0208,5.4062 12.0208,5.4062" id="Fill-4" fill="#CC3612"></path>
                <path d="M12.5208,20.6875 C12.5208,20.6875 12.3698,20.5635 12.1348,20.3335 C12.0148,20.2275 11.9138,20.0215 11.7928,19.7835 C11.6778,19.5425 11.6148,19.2685 11.5648,18.9495 C11.5488,18.6405 11.5198,18.2795 11.5988,17.9335 C11.6438,17.5675 11.7778,17.2275 11.9108,16.8615 C12.0748,16.5255 12.2448,16.1645 12.4758,15.8555 C12.6848,15.5215 12.9508,15.2395 13.2048,14.9445 C13.4838,14.6795 13.7528,14.3995 14.0568,14.1795 C14.3498,13.9445 14.6558,13.7375 14.9648,13.5625 C15.5738,13.1985 16.1908,12.9525 16.7358,12.8005 C17.0008,12.7095 17.2658,12.6745 17.4898,12.6315 C17.7108,12.5805 17.9178,12.5745 18.0838,12.5645 C18.4188,12.5495 18.6098,12.5605 18.6098,12.5605 C18.6098,12.5605 18.4758,12.7075 18.2398,12.9305 C18.0008,13.1435 17.6778,13.4685 17.2878,13.8085 C16.5268,14.5265 15.5358,15.4055 14.6518,16.3245 C14.4398,16.5585 14.2128,16.7855 14.0228,17.0215 C13.8108,17.2505 13.6498,17.4885 13.4618,17.7125 C13.3178,17.9465 13.1338,18.1675 13.0278,18.3915 C12.8848,18.6135 12.8048,18.8285 12.7038,19.0415 C12.6518,19.2465 12.5668,19.4675 12.5408,19.6435 C12.5358,19.8195 12.4628,19.9975 12.4928,20.1645 C12.5208,20.4925 12.5208,20.6875 12.5208,20.6875" id="Fill-6" fill="#CC3612"></path>
            </g>
        </g>
    </g>
</svg>